<svg xmlns="http://www.w3.org/2000/svg" style="display:none">
  <symbol id="icon-shield" viewBox="0 0 24 24">
    <path fill="#00FFE5" d="M12 2l7 4v6c0 5-3.5 9-7 10-3.5-1-7-5-7-10V6l7-4z"/>
  </symbol>
  <symbol id="icon-pulse" viewBox="0 0 24 24">
    <path fill="none" stroke="#00FFE5" stroke-width="2" d="M2 12h6l2-4 4 8 2-4h6"/>
  </symbol>
  <symbol id="icon-brain" viewBox="0 0 24 24">
    <path fill="#00FFE5" d="M8 4c-2 0-4 2-4 4 0 1 .4 2 1 3-1 .6-1 2-1 3 0 2 2 4 4 4h1v-14H8z"/>
    <path fill="#00FFE5" d="M16 4c2 0 4 2 4 4 0 1-.4 2-1 3 1 .6 1 2 1 3 0 2-2 4-4 4h-1V4h1z"/>
  </symbol>
</svg>
